Nobile-Italic.ufo
<glyph name="exclam" format="1">
  <advance width="621"/>
  <unicode hex="0021"/>
  <outline>
    <contour>
      <point x="533" y="1580" type="line"/>
      <point x="503" y="1377" type="line"/>
      <point x="306" y="400" type="line"/>
      <point x="206" y="400" type="line"/>
      <point x="296" y="1379" type="line"/>
      <point x="322" y="1580" type="line"/>
    </contour>
    <contour>
      <point x="240" y="235" type="curve" smooth="yes"/>
      <point x="296" y="235"/>
      <point x="336" y="186"/>
      <point x="336" y="129" type="curve" smooth="yes"/>
      <point x="336" y="57"/>
      <point x="274" y="-21"/>
      <point x="204" y="-21" type="curve" smooth="yes"/>
      <point x="145" y="-21"/>
      <point x="104" y="27"/>
      <point x="104" y="87" type="curve" smooth="yes"/>
      <point x="104" y="160"/>
      <point x="167" y="235"/>
    </contour>
  </outline>
</glyph>
<glyph name="ampersand" format="1">
  <advance width="1557"/>
  <unicode hex="0026"/>
  <outline>
    <contour>
      <point x="263" y="354" type="curve" smooth="yes"/>
      <point x="263" y="165"/>
      <point x="418" y="93"/>
      <point x="615" y="93" type="curve" smooth="yes"/>
      <point x="837" y="93"/>
      <point x="940" y="131"/>
      <point x="1037" y="256" type="curve"/>
      <point x="582" y="716" type="line"/>
      <point x="416" y="679"/>
      <point x="263" y="547"/>
    </contour>
    <contour>
      <point x="596" y="-39" type="curve" smooth="yes"/>
      <point x="335" y="-39"/>
      <point x="108" y="72"/>
      <point x="108" y="317" type="curve" smooth="yes"/>
      <point x="108" y="581"/>
      <point x="294" y="748"/>
      <point x="508" y="812" type="curve"/>
      <point x="436" y="864"/>
      <point x="333" y="965"/>
      <point x="333" y="1088" type="curve" smooth="yes"/>
      <point x="333" y="1309"/>
      <point x="522" y="1445"/>
      <point x="753" y="1445" type="curve" smooth="yes"/>
      <point x="948" y="1445"/>
      <point x="1083" y="1352"/>
      <point x="1083" y="1168" type="curve" smooth="yes"/>
      <point x="1083" y="918"/>
      <point x="931" y="827"/>
      <point x="724" y="761" type="curve"/>
      <point x="1111" y="364" type="line"/>
      <point x="1178" y="487"/>
      <point x="1232" y="617"/>
      <point x="1273" y="754" type="curve"/>
      <point x="1407" y="752" type="line"/>
      <point x="1360" y="585"/>
      <point x="1272" y="396"/>
      <point x="1200" y="273" type="curve"/>
      <point x="1394" y="95" type="line"/>
      <point x="1300" y="-7" type="line"/>
      <point x="1129" y="170" type="line"/>
      <point x="996" y="14"/>
      <point x="872" y="-39"/>
    </contour>
    <contour>
      <point x="933" y="1152" type="curve" smooth="yes"/>
      <point x="933" y="1261"/>
      <point x="847" y="1310"/>
      <point x="734" y="1310" type="curve" smooth="yes"/>
      <point x="589" y="1310"/>
      <point x="488" y="1231"/>
      <point x="488" y="1093" type="curve" smooth="yes"/>
      <point x="488" y="982"/>
      <point x="586" y="908"/>
      <point x="654" y="863" type="curve"/>
      <point x="808" y="910"/>
      <point x="907" y="954"/>
      <point x="931" y="1119" type="curve" smooth="yes"/>
      <point x="932" y="1126"/>
      <point x="933" y="1137"/>
    </contour>
  </outline>
</glyph>
<glyph name="quotesingle" format="1">
  <advance width="499"/>
  <unicode hex="0027"/>
  <outline>
    <contour>
      <point x="157" y="1030" type="line"/>
      <point x="186" y="1572" type="line"/>
      <point x="426" y="1572" type="line"/>
      <point x="255" y="1030" type="line"/>
    </contour>
  </outline>
</glyph>
<glyph name="period" format="1">
  <advance width="466"/>
  <unicode hex="002E"/>
  <outline>
    <contour>
      <point x="228" y="235" type="curve" smooth="yes"/>
      <point x="284" y="235"/>
      <point x="324" y="186"/>
      <point x="324" y="129" type="curve" smooth="yes"/>
      <point x="324" y="57"/>
      <point x="262" y="-21"/>
      <point x="192" y="-21" type="curve" smooth="yes"/>
      <point x="133" y="-21"/>
      <point x="92" y="27"/>
      <point x="92" y="87" type="curve" smooth="yes"/>
      <point x="92" y="160"/>
      <point x="155" y="235"/>
    </contour>
  </outline>
</glyph>
<glyph name="slash" format="1">
  <advance width="1094"/>
  <unicode hex="002F"/>
  <outline>
    <contour>
      <point x="1046" y="1672" type="line"/>
      <point x="196" y="-162" type="line"/>
      <point x="66" y="-96" type="line"/>
      <point x="902" y="1730" type="line"/>
    </contour>
  </outline>
</glyph>
<glyph name="eight" format="1">
  <advance width="1230"/>
  <unicode hex="0038"/>
  <outline>
    <contour>
      <point x="703" y="1208" type="curve" smooth="yes"/>
      <point x="505" y="1208"/>
      <point x="396" y="1104"/>
      <point x="396" y="909" type="curve" smooth="yes"/>
      <point x="396" y="758"/>
      <point x="489" y="716"/>
      <point x="633" y="698" type="curve"/>
      <point x="828" y="725"/>
      <point x="943" y="813"/>
      <point x="943" y="1017" type="curve" smooth="yes"/>
      <point x="943" y="1144"/>
      <point x="863" y="1208"/>
    </contour>
    <contour>
      <point x="281" y="201" type="curve" smooth="yes"/>
      <point x="281" y="53"/>
      <point x="374" y="9"/>
      <point x="528" y="9" type="curve" smooth="yes"/>
      <point x="747" y="9"/>
      <point x="859" y="99"/>
      <point x="859" y="321" type="curve" smooth="yes"/>
      <point x="859" y="472"/>
      <point x="777" y="559"/>
      <point x="613" y="582" type="curve"/>
      <point x="408" y="553"/>
      <point x="281" y="430"/>
    </contour>
    <contour>
      <point x="719" y="1344" type="curve" smooth="yes"/>
      <point x="937" y="1344"/>
      <point x="1099" y="1240"/>
      <point x="1099" y="1030" type="curve" smooth="yes"/>
      <point x="1099" y="819"/>
      <point x="971" y="692"/>
      <point x="813" y="642" type="curve"/>
      <point x="939" y="614"/>
      <point x="1027" y="480"/>
      <point x="1027" y="319" type="curve" smooth="yes"/>
      <point x="1027" y="17"/>
      <point x="810" y="-140"/>
      <point x="511" y="-140" type="curve" smooth="yes"/>
      <point x="287" y="-140"/>
      <point x="107" y="-45"/>
      <point x="107" y="179" type="curve" smooth="yes"/>
      <point x="107" y="412"/>
      <point x="250" y="594"/>
      <point x="431" y="642" type="curve"/>
      <point x="424" y="644" type="line"/>
      <point x="321" y="690"/>
      <point x="240" y="763"/>
      <point x="240" y="913" type="curve" smooth="yes"/>
      <point x="240" y="1188"/>
      <point x="440" y="1344"/>
    </contour>
  </outline>
</glyph>
<glyph name="colon" format="1">
  <advance width="620"/>
  <unicode hex="003A"/>
  <outline>
    <contour>
      <point x="448" y="612" type="line"/>
      <point x="190" y="612" type="line"/>
      <point x="232" y="876" type="line"/>
      <point x="490" y="876" type="line"/>
    </contour>
    <contour>
      <point x="358" y="0" type="line"/>
      <point x="100" y="0" type="line"/>
      <point x="142" y="264" type="line"/>
      <point x="400" y="264" type="line"/>
    </contour>
  </outline>
</glyph>
<glyph name="less" format="1">
  <advance width="875"/>
  <unicode hex="003C"/>
  <outline>
    <contour>
      <point x="135" y="666" type="line"/>
      <point x="755" y="1049" type="line"/>
      <point x="726" y="855" type="line"/>
      <point x="273" y="577" type="line"/>
      <point x="650" y="296" type="line"/>
      <point x="621" y="99" type="line"/>
      <point x="109" y="481" type="line"/>
    </contour>
  </outline>
</glyph>
<glyph name="question" format="1">
  <advance width="1058"/>
  <unicode hex="003F"/>
  <outline>
    <contour>
      <point x="209" y="-28" type="curve" smooth="yes"/>
      <point x="162" y="-28"/>
      <point x="126" y="11"/>
      <point x="126" y="59" type="curve" smooth="yes"/>
      <point x="126" y="120"/>
      <point x="177" y="180"/>
      <point x="237" y="180" type="curve" smooth="yes"/>
      <point x="290" y="180"/>
      <point x="321" y="143"/>
      <point x="321" y="92" type="curve" smooth="yes"/>
      <point x="321" y="29"/>
      <point x="274" y="-28"/>
    </contour>
    <contour>
      <point x="960" y="1205" type="curve" smooth="yes"/>
      <point x="960" y="862"/>
      <point x="630" y="684"/>
      <point x="387" y="580" type="curve"/>
      <point x="341" y="304" type="line"/>
      <point x="193" y="304" type="line"/>
      <point x="241" y="674" type="line"/>
      <point x="441" y="760"/>
      <point x="793" y="907"/>
      <point x="793" y="1192" type="curve" smooth="yes"/>
      <point x="793" y="1325"/>
      <point x="696" y="1364"/>
      <point x="549" y="1364" type="curve" smooth="yes"/>
      <point x="439" y="1364"/>
      <point x="335" y="1322"/>
      <point x="247" y="1282" type="curve"/>
      <point x="190" y="1424" type="line"/>
      <point x="292" y="1465"/>
      <point x="421" y="1516"/>
      <point x="569" y="1516" type="curve" smooth="yes"/>
      <point x="802" y="1516"/>
      <point x="960" y="1431"/>
    </contour>
  </outline>
</glyph>
<glyph name="C" format="1">
  <advance width="1387"/>
  <unicode hex="0043"/>
  <outline>
    <contour>
      <point x="320" y="562" type="curve" smooth="yes"/>
      <point x="320" y="283"/>
      <point x="405" y="112"/>
      <point x="677" y="112" type="curve" smooth="yes"/>
      <point x="836" y="112"/>
      <point x="956" y="171"/>
      <point x="1051" y="229" type="curve"/>
      <point x="1107" y="101" type="line"/>
      <point x="990" y="20"/>
      <point x="858" y="-40"/>
      <point x="664" y="-40" type="curve" smooth="yes"/>
      <point x="305" y="-40"/>
      <point x="134" y="192"/>
      <point x="134" y="558" type="curve" smooth="yes"/>
      <point x="134" y="1108"/>
      <point x="365" y="1610"/>
      <point x="918" y="1610" type="curve" smooth="yes"/>
      <point x="1095" y="1610"/>
      <point x="1212" y="1544"/>
      <point x="1316" y="1459" type="curve"/>
      <point x="1239" y="1331" type="line"/>
      <point x="1150" y="1404"/>
      <point x="1069" y="1458"/>
      <point x="904" y="1458" type="curve" smooth="yes"/>
      <point x="472" y="1458"/>
      <point x="320" y="991"/>
    </contour>
    <contour>
      <point x="616" y="1574" type="move" name="top"/>
    </contour>
    <contour>
      <point x="616" y="0" type="move" name="bottom"/>
    </contour>
  </outline>
</glyph>
<glyph name="G" format="1">
  <advance width="1451"/>
  <unicode hex="0047"/>
  <outline>
    <contour>
      <point x="656" y="-40" type="curve" smooth="yes"/>
      <point x="297" y="-45"/>
      <point x="134" y="177"/>
      <point x="134" y="552" type="curve" smooth="yes"/>
      <point x="134" y="1107"/>
      <point x="365" y="1610"/>
      <point x="920" y="1610" type="curve" smooth="yes"/>
      <point x="1075" y="1610"/>
      <point x="1215" y="1552"/>
      <point x="1317" y="1476" type="curve"/>
      <point x="1251" y="1346" type="line"/>
      <point x="1155" y="1412"/>
      <point x="1055" y="1458"/>
      <point x="906" y="1458" type="curve" smooth="yes"/>
      <point x="466" y="1458"/>
      <point x="320" y="996"/>
      <point x="320" y="556" type="curve" smooth="yes"/>
      <point x="320" y="273"/>
      <point x="413" y="112"/>
      <point x="677" y="112" type="curve" smooth="yes"/>
      <point x="897" y="112"/>
      <point x="1069" y="252"/>
      <point x="1093" y="433" type="curve" smooth="yes"/>
      <point x="1126" y="684" type="line"/>
      <point x="742" y="684" type="line"/>
      <point x="762" y="812" type="line"/>
      <point x="1308" y="812" type="line"/>
      <point x="1194" y="0" type="line"/>
      <point x="1097" y="0" type="line"/>
      <point x="1097" y="231" type="line"/>
      <point x="1036" y="68"/>
      <point x="858" y="-37"/>
    </contour>
    <contour>
      <point x="683" y="1574" type="move" name="top"/>
    </contour>
    <contour>
      <point x="683" y="0" type="move" name="bottom"/>
    </contour>
  </outline>
</glyph>
<glyph name="H" format="1">
  <advance width="1556"/>
  <unicode hex="0048"/>
  <outline>
    <contour>
      <point x="782" y="1574" type="move" name="top"/>
    </contour>
    <contour>
      <point x="782" y="787" type="move" name="center"/>
    </contour>
    <contour>
      <point x="1462" y="1574" type="line"/>
      <point x="1240" y="0" type="line"/>
      <point x="1062" y="0" type="line"/>
      <point x="1172" y="764" type="line"/>
      <point x="391" y="764" type="line"/>
      <point x="283" y="0" type="line"/>
      <point x="106" y="0" type="line"/>
      <point x="330" y="1574" type="line"/>
      <point x="505" y="1574" type="line"/>
      <point x="407" y="878" type="line"/>
      <point x="1188" y="878" type="line"/>
      <point x="1286" y="1574" type="line"/>
    </contour>
  </outline>
</glyph>
<glyph name="I" format="1">
  <advance width="925"/>
  <unicode hex="0049"/>
  <outline>
    <contour>
      <point x="417" y="1574" type="move" name="top"/>
    </contour>
    <contour>
      <point x="750" y="10" type="move" name="ogonek"/>
    </contour>
    <contour>
      <point x="637" y="0" type="line"/>
      <point x="83" y="0" type="line"/>
      <point x="97" y="102" type="line"/>
      <point x="289" y="102" type="line"/>
      <point x="483" y="1482" type="line"/>
      <point x="293" y="1482" type="line"/>
      <point x="307" y="1574" type="line"/>
      <point x="857" y="1574" type="line"/>
      <point x="845" y="1482" type="line"/>
      <point x="653" y="1482" type="line"/>
      <point x="459" y="102" type="line"/>
      <point x="651" y="102" type="line"/>
    </contour>
  </outline>
</glyph>
<glyph name="J" format="1">
  <advance width="895"/>
  <unicode hex="004A"/>
  <outline>
    <contour>
      <point x="417" y="1574" type="move" name="top"/>
    </contour>
    <contour>
      <point x="459" y="386" type="curve" smooth="yes"/>
      <point x="626" y="1574" type="line"/>
      <point x="801" y="1574" type="line"/>
      <point x="640" y="420" type="line" smooth="yes"/>
      <point x="582" y="9"/>
      <point x="479" y="-122"/>
      <point x="87" y="-205" type="curve"/>
      <point x="60" y="-69" type="line"/>
      <point x="360" y="-6"/>
      <point x="413" y="52"/>
    </contour>
  </outline>
</glyph>
<glyph name="N" format="1">
  <advance width="1574"/>
  <unicode hex="004E"/>
  <outline>
    <contour>
      <point x="783" y="1574" type="move" name="top"/>
    </contour>
    <contour>
      <point x="783" y="0" type="move" name="bottom"/>
    </contour>
    <contour>
      <point x="330" y="1574" type="line"/>
      <point x="588" y="1574" type="line"/>
      <point x="1118" y="165" type="line"/>
      <point x="1317" y="1574" type="line"/>
      <point x="1480" y="1574" type="line"/>
      <point x="1254" y="0" type="line"/>
      <point x="1004" y="0" type="line"/>
      <point x="462" y="1427" type="line"/>
      <point x="261" y="-1" type="line"/>
      <point x="106" y="0" type="line"/>
    </contour>
  </outline>
</glyph>
<glyph name="Q" format="1">
  <advance width="1528"/>
  <unicode hex="0051"/>
  <outline>
    <contour>
      <point x="1403" y="1010" type="curve" smooth="yes"/>
      <point x="1403" y="500"/>
      <point x="1218" y="50"/>
      <point x="783" y="-28" type="curve"/>
      <point x="1075" y="-311" type="line"/>
      <point x="967" y="-424" type="line"/>
      <point x="832" y="-294"/>
      <point x="705" y="-164"/>
      <point x="570" y="-34" type="curve"/>
      <point x="316" y="14"/>
      <point x="135" y="219"/>
      <point x="135" y="556" type="curve" smooth="yes"/>
      <point x="135" y="1098"/>
      <point x="346" y="1610"/>
      <point x="887" y="1610" type="curve" smooth="yes"/>
      <point x="1248" y="1610"/>
      <point x="1403" y="1375"/>
    </contour>
    <contour>
      <point x="1219" y="1012" type="curve" smooth="yes"/>
      <point x="1219" y="1290"/>
      <point x="1125" y="1458"/>
      <point x="865" y="1458" type="curve" smooth="yes"/>
      <point x="443" y="1458"/>
      <point x="321" y="982"/>
      <point x="321" y="558" type="curve" smooth="yes"/>
      <point x="321" y="281"/>
      <point x="427" y="112"/>
      <point x="677" y="112" type="curve" smooth="yes"/>
      <point x="1099" y="112"/>
      <point x="1219" y="588"/>
    </contour>
  </outline>
</glyph>
<glyph name="S" format="1">
  <advance width="1309"/>
  <unicode hex="0053"/>
  <outline>
    <contour>
      <point x="765" y="1458" type="curve" smooth="yes"/>
      <point x="526" y="1458"/>
      <point x="390" y="1362"/>
      <point x="390" y="1173" type="curve" smooth="yes"/>
      <point x="390" y="1084"/>
      <point x="438" y="1021"/>
      <point x="548" y="983" type="curve" smooth="yes"/>
      <point x="844" y="880" type="line" smooth="yes"/>
      <point x="1009" y="820"/>
      <point x="1150" y="698"/>
      <point x="1150" y="474" type="curve" smooth="yes"/>
      <point x="1150" y="113"/>
      <point x="917" y="-40"/>
      <point x="538" y="-40" type="curve" smooth="yes"/>
      <point x="363" y="-40"/>
      <point x="211" y="21"/>
      <point x="110" y="73" type="curve"/>
      <point x="169" y="221" type="line"/>
      <point x="269" y="165"/>
      <point x="410" y="112"/>
      <point x="559" y="112" type="curve" smooth="yes"/>
      <point x="805" y="112"/>
      <point x="968" y="216"/>
      <point x="968" y="457" type="curve" smooth="yes"/>
      <point x="968" y="572"/>
      <point x="908" y="658"/>
      <point x="772" y="707" type="curve" smooth="yes"/>
      <point x="474" y="813" type="line" smooth="yes"/>
      <point x="333" y="864"/>
      <point x="213" y="967"/>
      <point x="213" y="1156" type="curve" smooth="yes"/>
      <point x="213" y="1449"/>
      <point x="454" y="1610"/>
      <point x="759" y="1610" type="curve" smooth="yes"/>
      <point x="939" y="1610"/>
      <point x="1055" y="1553"/>
      <point x="1172" y="1487" type="curve"/>
      <point x="1104" y="1350" type="line"/>
      <point x="1006" y="1404"/>
      <point x="922" y="1458"/>
    </contour>
    <contour>
      <point x="634" y="1574" type="move" name="top"/>
    </contour>
    <contour>
      <point x="634" y="0" type="move" name="bottom"/>
    </contour>
  </outline>
</glyph>
<glyph name="U" format="1">
  <advance width="1539"/>
  <unicode hex="0055"/>
  <outline>
    <contour>
      <point x="317" y="468" type="curve" smooth="yes"/>
      <point x="317" y="209"/>
      <point x="406" y="112"/>
      <point x="656" y="112" type="curve" smooth="yes"/>
      <point x="1023" y="112"/>
      <point x="1098" y="378"/>
      <point x="1145" y="710" type="curve" smooth="yes"/>
      <point x="1269" y="1574" type="line"/>
      <point x="1449" y="1574" type="line"/>
      <point x="1327" y="714" type="line" smooth="yes"/>
      <point x="1267" y="290"/>
      <point x="1107" y="-40"/>
      <point x="635" y="-40" type="curve" smooth="yes"/>
      <point x="290" y="-40"/>
      <point x="141" y="141"/>
      <point x="141" y="490" type="curve" smooth="yes"/>
      <point x="141" y="555"/>
      <point x="147" y="630"/>
      <point x="159" y="714" type="curve" smooth="yes"/>
      <point x="281" y="1574" type="line"/>
      <point x="459" y="1574" type="line"/>
      <point x="339" y="710" type="line" smooth="yes"/>
      <point x="324" y="595"/>
      <point x="317" y="515"/>
    </contour>
    <contour>
      <point x="782" y="1574" type="move" name="top"/>
    </contour>
    <contour>
      <point x="1407" y="10" type="move" name="ogonek"/>
    </contour>
  </outline>
</glyph>
<glyph name="X" format="1">
  <advance width="1451"/>
  <unicode hex="0058"/>
  <outline>
    <contour>
      <point x="1170" y="0" type="line"/>
      <point x="978" y="0" type="line"/>
      <point x="714" y="632" type="line"/>
      <point x="268" y="0" type="line"/>
      <point x="76" y="0" type="line"/>
      <point x="636" y="790" type="line"/>
      <point x="296" y="1574" type="line"/>
      <point x="484" y="1574" type="line"/>
      <point x="754" y="930" type="line"/>
      <point x="1190" y="1574" type="line"/>
      <point x="1390" y="1574" type="line"/>
      <point x="828" y="790" type="line"/>
    </contour>
  </outline>
</glyph>
<glyph name="Z" format="1">
  <advance width="1340"/>
  <unicode hex="005A"/>
  <outline>
    <contour>
      <point x="564" y="1574" type="move" name="top"/>
    </contour>
    <contour>
      <point x="290" y="1436" type="line"/>
      <point x="310" y="1574" type="line"/>
      <point x="1268" y="1574" type="line"/>
      <point x="1246" y="1420" type="line"/>
      <point x="924" y="995"/>
      <point x="609" y="563"/>
      <point x="280" y="144" type="curve"/>
      <point x="1068" y="144" type="line"/>
      <point x="1048" y="0" type="line"/>
      <point x="90" y="0" type="line"/>
      <point x="114" y="180" type="line"/>
      <point x="432" y="598"/>
      <point x="745" y="1022"/>
      <point x="1067" y="1436" type="curve"/>
    </contour>
  </outline>
</glyph>
<glyph name="bracketleft" format="1">
  <advance width="1016"/>
  <unicode hex="005B"/>
  <outline>
    <contour>
      <point x="726" y="0" type="line"/>
      <point x="106" y="0" type="line"/>
      <point x="330" y="1580" type="line"/>
      <point x="946" y="1580" type="line"/>
      <point x="926" y="1436" type="line"/>
      <point x="488" y="1436" type="line"/>
      <point x="308" y="144" type="line"/>
      <point x="746" y="144" type="line"/>
    </contour>
  </outline>
</glyph>
<glyph name="c" format="1">
  <advance width="1014.76765925"/>
  <unicode hex="0063"/>
  <outline>
    <contour>
      <point x="498.389564738" y="-21" type="curve" smooth="yes"/>
      <point x="245.389564738" y="-21"/>
      <point x="116.389564738" y="146"/>
      <point x="116.389564738" y="408" type="curve" smooth="yes"/>
      <point x="116.389564738" y="784"/>
      <point x="281.389564738" y="1130"/>
      <point x="658.389564738" y="1130" type="curve" smooth="yes"/>
      <point x="806.389564738" y="1130"/>
      <point x="899.389564738" y="1052"/>
      <point x="988.389564738" y="965" type="curve"/>
      <point x="902.389564738" y="872" type="line"/>
      <point x="832.389564738" y="939"/>
      <point x="794.389564738" y="1002"/>
      <point x="654.389564738" y="1002" type="curve" smooth="yes"/>
      <point x="371.389564738" y="1002"/>
      <point x="278.389564738" y="691"/>
      <point x="278.389564738" y="410" type="curve" smooth="yes"/>
      <point x="278.389564738" y="210"/>
      <point x="359.389564738" y="107"/>
      <point x="521.389564738" y="107" type="curve" smooth="yes"/>
      <point x="639.389564738" y="107"/>
      <point x="706.389564738" y="163"/>
      <point x="781.389564738" y="209" type="curve"/>
      <point x="844.389564738" y="101" type="line"/>
      <point x="742.389564738" y="39"/>
      <point x="669.389564738" y="-21"/>
    </contour>
    <contour>
      <point x="488.389564738" y="1110" type="move" name="top"/>
    </contour>
    <contour>
      <point x="488.389564738" y="0" type="move" name="bottom"/>
    </contour>
  </outline>
</glyph>
<glyph name="d" format="1">
  <advance width="1245"/>
  <unicode hex="0064"/>
  <outline>
    <contour>
      <point x="278" y="408" type="curve" smooth="yes"/>
      <point x="278" y="252"/>
      <point x="319" y="107"/>
      <point x="476" y="107" type="curve" smooth="yes"/>
      <point x="619" y="107"/>
      <point x="729" y="206"/>
      <point x="796" y="282" type="curve"/>
      <point x="876" y="838" type="line"/>
      <point x="831" y="916"/>
      <point x="730" y="1002"/>
      <point x="605" y="1002" type="curve" smooth="yes"/>
      <point x="358" y="1002"/>
      <point x="278" y="657"/>
    </contour>
    <contour>
      <point x="921" y="0" type="line"/>
      <point x="808" y="0" type="line"/>
      <point x="808" y="182" type="line"/>
      <point x="733" y="89"/>
      <point x="605" y="-21"/>
      <point x="454" y="-21" type="curve" smooth="yes"/>
      <point x="208" y="-21"/>
      <point x="118" y="172"/>
      <point x="118" y="416" type="curve" smooth="yes"/>
      <point x="118" y="762"/>
      <point x="270" y="1130"/>
      <point x="614" y="1130" type="curve" smooth="yes"/>
      <point x="752" y="1130"/>
      <point x="842" y="1037"/>
      <point x="891" y="950" type="curve"/>
      <point x="986" y="1638" type="line"/>
      <point x="1156" y="1653" type="line"/>
    </contour>
    <contour>
      <point x="562" y="555" type="move" name="center"/>
    </contour>
  </outline>
</glyph>
<glyph name="f" format="1">
  <advance width="966"/>
  <unicode hex="0066"/>
  <outline>
    <contour>
      <point x="486" y="1002" type="line"/>
      <point x="286" y="-411" type="line"/>
      <point x="121" y="-410" type="line"/>
      <point x="321" y="1002" type="line"/>
      <point x="163" y="1002" type="line"/>
      <point x="171" y="1080" type="line"/>
      <point x="332" y="1080" type="line"/>
      <point x="344" y="1164" type="line" smooth="yes"/>
      <point x="377" y="1398"/>
      <point x="448" y="1582"/>
      <point x="704" y="1582" type="curve" smooth="yes"/>
      <point x="756" y="1582"/>
      <point x="892" y="1530"/>
      <point x="892" y="1490" type="curve"/>
      <point x="820" y="1366" type="line"/>
      <point x="779" y="1415"/>
      <point x="734" y="1440"/>
      <point x="686" y="1440" type="curve" smooth="yes"/>
      <point x="545" y="1440"/>
      <point x="528" y="1307"/>
      <point x="509" y="1168" type="curve" smooth="yes"/>
      <point x="497" y="1080" type="line"/>
      <point x="803" y="1080" type="line"/>
      <point x="794" y="1002" type="line"/>
    </contour>
  </outline>
</glyph>
<glyph name="g" format="1">
  <advance width="1210.0"/>
  <unicode hex="0067"/>
  <outline>
    <contour>
      <point x="1019.19676459" y="-100" type="curve" smooth="yes"/>
      <point x="1019.19676459" y="89"/>
      <point x="905.196764594" y="161"/>
      <point x="721.196764594" y="185" type="curve" smooth="yes"/>
      <point x="440.196764594" y="222" type="line" smooth="yes"/>
      <point x="379.196764594" y="230"/>
      <point x="303.196764594" y="232"/>
      <point x="303.196764594" y="297" type="curve" smooth="yes"/>
      <point x="303.196764594" y="333"/>
      <point x="326.196764594" y="355"/>
      <point x="367.196764594" y="380" type="curve" smooth="yes"/>
      <point x="483.196764594" y="463" type="line"/>
      <point x="906.196764594" y="408"/>
      <point x="1037.19676459" y="611"/>
      <point x="1037.19676459" y="818" type="curve" smooth="yes"/>
      <point x="1037.19676459" y="879"/>
      <point x="997.196764594" y="940"/>
      <point x="963.196764594" y="986" type="curve"/>
      <point x="1216.19676459" y="990" type="line"/>
      <point x="1216.19676459" y="1144" type="line"/>
      <point x="1091.19676459" y="1144"/>
      <point x="1000.19676459" y="1090"/>
      <point x="914.196764594" y="1048" type="curve"/>
      <point x="846.196764594" y="1097"/>
      <point x="775.196764594" y="1128"/>
      <point x="648.196764594" y="1130" type="curve" smooth="yes"/>
      <point x="404.196764594" y="1130"/>
      <point x="223.196764594" y="993"/>
      <point x="223.196764594" y="754" type="curve" smooth="yes"/>
      <point x="223.196764594" y="647"/>
      <point x="297.196764594" y="551"/>
      <point x="386.196764594" y="508" type="curve"/>
      <point x="339.196764594" y="482" type="line" smooth="yes"/>
      <point x="305.196764594" y="463"/>
      <point x="145.196764594" y="373"/>
      <point x="145.196764594" y="286" type="curve" smooth="yes"/>
      <point x="145.196764594" y="209"/>
      <point x="171.196764594" y="158"/>
      <point x="286.196764594" y="130" type="curve"/>
      <point x="176.196764594" y="72"/>
      <point x="49.1967645937" y="-2"/>
      <point x="39.1967645937" y="-170" type="curve"/>
      <point x="39.1967645937" y="-356"/>
      <point x="220.196764594" y="-429"/>
      <point x="478.196764594" y="-429" type="curve" smooth="yes"/>
      <point x="744.196764594" y="-429"/>
      <point x="1019.19676459" y="-362"/>
    </contour>
    <contour>
      <point x="888.196764594" y="629"/>
      <point x="807.196764594" y="565"/>
      <point x="613.196764594" y="565" type="curve" smooth="yes"/>
      <point x="488.196764594" y="565"/>
      <point x="380.196764594" y="634"/>
      <point x="380.196764594" y="759" type="curve" smooth="yes"/>
      <point x="380.196764594" y="927"/>
      <point x="486.196764594" y="1002"/>
      <point x="663.196764594" y="1002" type="curve"/>
      <point x="782.196764594" y="1002"/>
      <point x="888.196764594" y="931"/>
      <point x="888.196764594" y="812" type="curve" smooth="yes"/>
    </contour>
    <contour>
      <point x="878.196764594" y="-258"/>
      <point x="704.196764594" y="-294"/>
      <point x="502.196764594" y="-294" type="curve" smooth="yes"/>
      <point x="343.196764594" y="-294"/>
      <point x="187.196764594" y="-273"/>
      <point x="187.196764594" y="-138" type="curve" smooth="yes"/>
      <point x="187.196764594" y="-60"/>
      <point x="250.196764594" y="19"/>
      <point x="377.196764594" y="99" type="curve"/>
      <point x="614.196764594" y="69" type="line" smooth="yes"/>
      <point x="788.196764594" y="47"/>
      <point x="878.196764594" y="29"/>
      <point x="878.196764594" y="-98" type="curve" smooth="yes"/>
    </contour>
    <contour>
      <point x="550.196764594" y="1110" type="move" name="top"/>
    </contour>
  </outline>
</glyph>
<glyph name="k" format="1">
  <advance width="1209"/>
  <unicode hex="006B"/>
  <outline>
    <contour>
      <point x="504" y="0" type="move" name="bottom"/>
    </contour>
    <contour>
      <point x="914" y="1110" type="line"/>
      <point x="1106" y="1110" type="line"/>
      <point x="558" y="602" type="line"/>
      <point x="948" y="0" type="line"/>
      <point x="790" y="0" type="line"/>
      <point x="454" y="524" type="line"/>
      <point x="334" y="428" type="line"/>
      <point x="271" y="0" type="line"/>
      <point x="106" y="0" type="line"/>
      <point x="337" y="1639" type="line"/>
      <point x="505" y="1653" type="line"/>
      <point x="358" y="596" type="line"/>
    </contour>
  </outline>
</glyph>
<glyph name="n" format="1">
  <advance width="1205"/>
  <unicode hex="006E"/>
  <outline>
    <contour>
      <point x="826" y="1130" type="curve" smooth="yes"/>
      <point x="995" y="1130"/>
      <point x="1069" y="1012"/>
      <point x="1069" y="837" type="curve" smooth="yes"/>
      <point x="1069" y="816"/>
      <point x="1061" y="749"/>
      <point x="1046" y="636" type="curve" smooth="yes"/>
      <point x="956" y="0" type="line"/>
      <point x="791" y="0" type="line"/>
      <point x="882" y="636" type="line" smooth="yes"/>
      <point x="891" y="691"/>
      <point x="895" y="742"/>
      <point x="895" y="791" type="curve" smooth="yes"/>
      <point x="895" y="915"/>
      <point x="880" y="1002"/>
      <point x="768" y="1002" type="curve" smooth="yes"/>
      <point x="645" y="1002"/>
      <point x="510" y="894"/>
      <point x="365" y="685" type="curve"/>
      <point x="267" y="0" type="line"/>
      <point x="102" y="0" type="line"/>
      <point x="260" y="1110" type="line"/>
      <point x="368" y="1110" type="line"/>
      <point x="368" y="829" type="line"/>
      <point x="483" y="1016"/>
      <point x="645" y="1130"/>
    </contour>
    <contour>
      <point x="572" y="1110" type="move" name="top"/>
    </contour>
    <contour>
      <point x="572" y="0" type="move" name="bottom"/>
    </contour>
  </outline>
</glyph>
<glyph name="o" format="1">
  <advance width="1183"/>
  <unicode hex="006F"/>
  <outline>
    <contour>
      <point x="664" y="1130" type="curve" smooth="yes"/>
      <point x="932" y="1130"/>
      <point x="1048" y="946"/>
      <point x="1048" y="680" type="curve" smooth="yes"/>
      <point x="1048" y="312"/>
      <point x="869" y="-21"/>
      <point x="502" y="-21" type="curve" smooth="yes"/>
      <point x="236" y="-21"/>
      <point x="118" y="161"/>
      <point x="118" y="426" type="curve" smooth="yes"/>
      <point x="118" y="794"/>
      <point x="292" y="1130"/>
    </contour>
    <contour>
      <point x="280" y="431" type="curve" smooth="yes"/>
      <point x="280" y="248"/>
      <point x="331" y="107"/>
      <point x="517" y="107" type="curve" smooth="yes"/>
      <point x="752" y="107"/>
      <point x="886" y="416"/>
      <point x="886" y="687" type="curve" smooth="yes"/>
      <point x="886" y="898"/>
      <point x="809" y="1002"/>
      <point x="655" y="1002" type="curve" smooth="yes"/>
      <point x="381" y="1002"/>
      <point x="280" y="703"/>
    </contour>
    <contour>
      <point x="563" y="1110" type="move" name="top"/>
    </contour>
  </outline>
</glyph>
<glyph name="p" format="1">
  <advance width="1239"/>
  <unicode hex="0070"/>
  <outline>
    <contour>
      <point x="943" y="706" type="curve" smooth="yes"/>
      <point x="943" y="860"/>
      <point x="934" y="1002"/>
      <point x="780" y="1002" type="curve" smooth="yes"/>
      <point x="606" y="1002"/>
      <point x="465" y="794"/>
      <point x="395" y="684" type="curve"/>
      <point x="338" y="273" type="line"/>
      <point x="393" y="196"/>
      <point x="494" y="107"/>
      <point x="626" y="107" type="curve" smooth="yes"/>
      <point x="869" y="107"/>
      <point x="943" y="453"/>
    </contour>
    <contour>
      <point x="609" y="-21" type="curve" smooth="yes"/>
      <point x="478" y="-21"/>
      <point x="373" y="74"/>
      <point x="322" y="162" type="curve"/>
      <point x="242" y="-410" type="line"/>
      <point x="75" y="-410" type="line"/>
      <point x="291" y="1110" type="line"/>
      <point x="412" y="1110" type="line"/>
      <point x="411" y="830" type="line"/>
      <point x="473" y="959"/>
      <point x="634" y="1130"/>
      <point x="804" y="1130" type="curve" smooth="yes"/>
      <point x="1046" y="1130"/>
      <point x="1103" y="938"/>
      <point x="1103" y="696" type="curve" smooth="yes"/>
      <point x="1103" y="350"/>
      <point x="953" y="-21"/>
    </contour>
  </outline>
</glyph>
<glyph name="r" format="1">
  <advance width="909"/>
  <unicode hex="0072"/>
  <outline>
    <contour>
      <point x="371" y="1110" type="move" name="top"/>
    </contour>
    <contour>
      <point x="371" y="0" type="move" name="bottom"/>
    </contour>
    <contour>
      <point x="726" y="1130" type="curve" smooth="yes"/>
      <point x="758" y="1130"/>
      <point x="791" y="1126"/>
      <point x="810" y="1118" type="curve"/>
      <point x="788" y="963" type="line"/>
      <point x="771" y="968"/>
      <point x="752" y="970"/>
      <point x="732" y="970" type="curve" smooth="yes"/>
      <point x="567" y="970"/>
      <point x="443" y="824"/>
      <point x="370" y="732" type="curve"/>
      <point x="267" y="0" type="line"/>
      <point x="102" y="0" type="line"/>
      <point x="259" y="1110" type="line"/>
      <point x="384" y="1110" type="line"/>
      <point x="384" y="849" type="line"/>
      <point x="444" y="963"/>
      <point x="581" y="1130"/>
    </contour>
  </outline>
</glyph>
<glyph name="s" format="1">
  <advance width="1049"/>
  <unicode hex="0073"/>
  <outline>
    <contour>
      <point x="208" y="805" type="curve" smooth="yes"/>
      <point x="208" y="1016"/>
      <point x="368" y="1130"/>
      <point x="579" y="1130" type="curve" smooth="yes"/>
      <point x="736" y="1130"/>
      <point x="820" y="1072"/>
      <point x="916" y="1012" type="curve"/>
      <point x="836" y="896" type="line"/>
      <point x="764" y="944"/>
      <point x="696" y="1002"/>
      <point x="581" y="1002" type="curve" smooth="yes"/>
      <point x="451" y="1002"/>
      <point x="354" y="936"/>
      <point x="354" y="822" type="curve" smooth="yes"/>
      <point x="354" y="739"/>
      <point x="405" y="724"/>
      <point x="477" y="691" type="curve" smooth="yes"/>
      <point x="605" y="632" type="line" smooth="yes"/>
      <point x="728" y="575"/>
      <point x="859" y="524"/>
      <point x="859" y="349" type="curve" smooth="yes"/>
      <point x="859" y="107"/>
      <point x="700" y="-21"/>
      <point x="453" y="-21" type="curve" smooth="yes"/>
      <point x="289" y="-21"/>
      <point x="205" y="34"/>
      <point x="100" y="96" type="curve"/>
      <point x="180" y="208" type="line"/>
      <point x="261" y="161"/>
      <point x="350" y="107"/>
      <point x="465" y="107" type="curve" smooth="yes"/>
      <point x="473" y="107" type="line" smooth="yes"/>
      <point x="618" y="107"/>
      <point x="705" y="193"/>
      <point x="705" y="333" type="curve" smooth="yes"/>
      <point x="705" y="425"/>
      <point x="643" y="450"/>
      <point x="562" y="485" type="curve" smooth="yes"/>
      <point x="425" y="543" type="line" smooth="yes"/>
      <point x="309" y="590"/>
      <point x="208" y="652"/>
    </contour>
    <contour>
      <point x="460" y="1110" type="move" name="top"/>
    </contour>
    <contour>
      <point x="460" y="0" type="move" name="bottom"/>
    </contour>
  </outline>
</glyph>
<glyph name="u" format="1">
  <advance width="1221"/>
  <unicode hex="0075"/>
  <outline>
    <contour>
      <point x="288" y="320" type="curve" smooth="yes"/>
      <point x="288" y="194"/>
      <point x="310" y="107"/>
      <point x="459" y="107" type="curve" smooth="yes"/>
      <point x="617" y="107"/>
      <point x="750" y="223"/>
      <point x="831" y="372" type="curve"/>
      <point x="935" y="1110" type="line"/>
      <point x="1099" y="1110" type="line"/>
      <point x="942" y="0" type="line"/>
      <point x="840" y="0" type="line"/>
      <point x="840" y="246" type="line"/>
      <point x="749" y="68"/>
      <point x="591" y="-21"/>
      <point x="431" y="-21" type="curve" smooth="yes"/>
      <point x="227" y="-21"/>
      <point x="120" y="96"/>
      <point x="120" y="306" type="curve" smooth="yes"/>
      <point x="120" y="329"/>
      <point x="124" y="365"/>
      <point x="131" y="414" type="curve" smooth="yes"/>
      <point x="231" y="1110" type="line"/>
      <point x="394" y="1110" type="line"/>
      <point x="297" y="428" type="line" smooth="yes"/>
      <point x="291" y="383"/>
      <point x="288" y="347"/>
    </contour>
    <contour>
      <point x="560" y="1110" type="move" name="top"/>
    </contour>
    <contour>
      <point x="1008" y="10" type="move" name="ogonek"/>
    </contour>
  </outline>
</glyph>
<glyph name="v" format="1">
  <advance width="1112"/>
  <unicode hex="0076"/>
  <outline>
    <contour>
      <point x="294" y="1110" type="line"/>
      <point x="418" y="314" type="line"/>
      <point x="444" y="140" type="line"/>
      <point x="452" y="159"/>
      <point x="507" y="298"/>
      <point x="516" y="316" type="curve" smooth="yes"/>
      <point x="640" y="599"/>
      <point x="718" y="828"/>
      <point x="843" y="1110" type="curve"/>
      <point x="1015" y="1110" type="line"/>
      <point x="519" y="0" type="line"/>
      <point x="327" y="0" type="line"/>
      <point x="140" y="1110" type="line"/>
    </contour>
  </outline>
</glyph>
<glyph name="w" format="1">
  <advance width="1590"/>
  <unicode hex="0077"/>
  <outline>
    <contour>
      <point x="897" y="1110" type="line"/>
      <point x="964" y="199" type="line"/>
      <point x="969" y="135" type="line"/>
      <point x="976" y="155"/>
      <point x="984" y="176"/>
      <point x="991" y="196" type="curve" smooth="yes"/>
      <point x="1103" y="501"/>
      <point x="1215" y="805"/>
      <point x="1328" y="1110" type="curve"/>
      <point x="1492" y="1110" type="line"/>
      <point x="1047" y="0" type="line"/>
      <point x="849" y="0" type="line"/>
      <point x="793" y="890" type="line"/>
      <point x="790" y="955" type="line"/>
      <point x="782" y="933"/>
      <point x="774" y="911"/>
      <point x="766" y="889" type="curve" smooth="yes"/>
      <point x="659" y="594"/>
      <point x="554" y="296"/>
      <point x="447" y="0" type="curve"/>
      <point x="260" y="0" type="line"/>
      <point x="145" y="1110" type="line"/>
      <point x="299" y="1110" type="line"/>
      <point x="371" y="206" type="line"/>
      <point x="377" y="135" type="line"/>
      <point x="385" y="157"/>
      <point x="393" y="179"/>
      <point x="400" y="201" type="curve" smooth="yes"/>
      <point x="508" y="504"/>
      <point x="616" y="807"/>
      <point x="723" y="1110" type="curve"/>
    </contour>
    <contour>
      <point x="709" y="1110" type="move" name="top"/>
    </contour>
  </outline>
</glyph>
<glyph name="braceright" format="1">
  <advance width="809"/>
  <unicode hex="007D"/>
  <outline>
    <contour>
      <point x="448" y="877" type="curve" smooth="yes"/>
      <point x="448" y="955"/>
      <point x="473" y="1083"/>
      <point x="473" y="1154" type="curve" smooth="yes"/>
      <point x="473" y="1253"/>
      <point x="455" y="1313"/>
      <point x="376" y="1326" type="curve" smooth="yes"/>
      <point x="358" y="1329"/>
      <point x="334" y="1330"/>
      <point x="303" y="1330" type="curve"/>
      <point x="330" y="1499" type="line"/>
      <point x="536" y="1499"/>
      <point x="624" y="1393"/>
      <point x="624" y="1185" type="curve" smooth="yes"/>
      <point x="624" y="1102"/>
      <point x="598" y="973"/>
      <point x="598" y="891" type="curve" smooth="yes"/>
      <point x="598" y="790"/>
      <point x="626" y="739"/>
      <point x="684" y="739" type="curve"/>
      <point x="655" y="550" type="line"/>
      <point x="575" y="550"/>
      <point x="520" y="454"/>
      <point x="490" y="262" type="curve" smooth="yes"/>
      <point x="450" y="2"/>
      <point x="356" y="-210"/>
      <point x="64" y="-210" type="curve"/>
      <point x="89" y="-41" type="line"/>
      <point x="162" y="-41"/>
      <point x="215" y="-32"/>
      <point x="250" y="8" type="curve" smooth="yes"/>
      <point x="307" y="74"/>
      <point x="329" y="174"/>
      <point x="347" y="287" type="curve" smooth="yes"/>
      <point x="369" y="426"/>
      <point x="416" y="538"/>
      <point x="500" y="608" type="curve" smooth="yes"/>
      <point x="520" y="624"/>
      <point x="540" y="637"/>
      <point x="561" y="645" type="curve"/>
      <point x="486" y="677"/>
      <point x="448" y="755"/>
    </contour>
  </outline>
</glyph>
<glyph name="exclamdown" format="1">
  <advance width="622"/>
  <unicode hex="00A1"/>
  <outline>
    <contour>
      <point x="102" y="-1" type="line"/>
      <point x="132" y="202" type="line"/>
      <point x="329" y="1179" type="line"/>
      <point x="429" y="1179" type="line"/>
      <point x="339" y="200" type="line"/>
      <point x="313" y="-1" type="line"/>
    </contour>
    <contour>
      <point x="395" y="1344" type="curve" smooth="yes"/>
      <point x="339" y="1344"/>
      <point x="299" y="1393"/>
      <point x="299" y="1450" type="curve" smooth="yes"/>
      <point x="299" y="1522"/>
      <point x="361" y="1600"/>
      <point x="431" y="1600" type="curve" smooth="yes"/>
      <point x="490" y="1600"/>
      <point x="531" y="1552"/>
      <point x="531" y="1492" type="curve" smooth="yes"/>
      <point x="531" y="1419"/>
      <point x="468" y="1344"/>
    </contour>
  </outline>
</glyph>
<glyph name="sterling" format="1">
  <advance width="1159"/>
  <unicode hex="00A3"/>
  <outline>
    <contour>
      <point x="1058" y="1189" type="curve"/>
      <point x="993" y="1058" type="line"/>
      <point x="917" y="1112"/>
      <point x="819" y="1180"/>
      <point x="688" y="1180" type="curve" smooth="yes"/>
      <point x="510" y="1180"/>
      <point x="403" y="1082"/>
      <point x="403" y="908" type="curve" smooth="yes"/>
      <point x="403" y="829"/>
      <point x="446" y="728"/>
      <point x="476" y="687" type="curve"/>
      <point x="891" y="687" type="line"/>
      <point x="875" y="576" type="line"/>
      <point x="477" y="576" type="line"/>
      <point x="453" y="404"/>
      <point x="390" y="220"/>
      <point x="286" y="134" type="curve"/>
      <point x="877" y="134" type="line"/>
      <point x="859" y="0" type="line"/>
      <point x="114" y="0" type="line"/>
      <point x="127" y="137" type="line"/>
      <point x="230" y="240"/>
      <point x="303" y="387"/>
      <point x="330" y="576" type="curve"/>
      <point x="147" y="576" type="line"/>
      <point x="163" y="687" type="line"/>
      <point x="323" y="687" type="line"/>
      <point x="279" y="731"/>
      <point x="251" y="826"/>
      <point x="251" y="912" type="curve" smooth="yes"/>
      <point x="251" y="1134"/>
      <point x="445" y="1322"/>
      <point x="669" y="1322" type="curve" smooth="yes"/>
      <point x="842" y="1322"/>
      <point x="972" y="1269"/>
    </contour>
  </outline>
</glyph>
<glyph name="section" format="1">
  <advance width="1101"/>
  <unicode hex="00A7"/>
  <outline>
    <contour>
      <point x="785" y="776" type="curve" smooth="yes"/>
      <point x="785" y="882"/>
      <point x="688" y="903"/>
      <point x="582" y="903" type="curve" smooth="yes"/>
      <point x="421" y="903"/>
      <point x="340" y="843"/>
      <point x="340" y="724" type="curve" smooth="yes"/>
      <point x="340" y="639"/>
      <point x="406" y="597"/>
      <point x="539" y="597" type="curve" smooth="yes"/>
      <point x="678" y="597"/>
      <point x="785" y="644"/>
    </contour>
    <contour>
      <point x="196" y="700" type="curve" smooth="yes"/>
      <point x="196" y="884"/>
      <point x="308" y="973"/>
      <point x="469" y="992" type="curve"/>
      <point x="356" y="1042"/>
      <point x="268" y="1094"/>
      <point x="268" y="1224" type="curve" smooth="yes"/>
      <point x="268" y="1436"/>
      <point x="441" y="1566"/>
      <point x="664" y="1566" type="curve" smooth="yes"/>
      <point x="776" y="1566"/>
      <point x="933" y="1503"/>
      <point x="984" y="1449" type="curve"/>
      <point x="911" y="1313" type="line"/>
      <point x="836" y="1385"/>
      <point x="750" y="1421"/>
      <point x="653" y="1421" type="curve" smooth="yes"/>
      <point x="520" y="1421"/>
      <point x="415" y="1378"/>
      <point x="415" y="1252" type="curve" smooth="yes"/>
      <point x="415" y="1185"/>
      <point x="478" y="1162"/>
      <point x="543" y="1136" type="curve" smooth="yes"/>
      <point x="679" y="1080" type="line" smooth="yes"/>
      <point x="821" y="1022"/>
      <point x="935" y="964"/>
      <point x="935" y="808" type="curve" smooth="yes"/>
      <point x="935" y="633"/>
      <point x="827" y="530"/>
      <point x="667" y="519" type="curve"/>
      <point x="797" y="467"/>
      <point x="862" y="385"/>
      <point x="862" y="274" type="curve" smooth="yes"/>
      <point x="862" y="35"/>
      <point x="675" y="-99"/>
      <point x="427" y="-99" type="curve" smooth="yes"/>
      <point x="316" y="-99"/>
      <point x="158" y="-39"/>
      <point x="105" y="17" type="curve"/>
      <point x="180" y="155" type="line"/>
      <point x="232" y="100"/>
      <point x="337" y="47"/>
      <point x="436" y="47" type="curve" smooth="yes"/>
      <point x="586" y="47"/>
      <point x="704" y="104"/>
      <point x="704" y="249" type="curve" smooth="yes"/>
      <point x="704" y="343"/>
      <point x="637" y="373"/>
      <point x="559" y="402" type="curve" smooth="yes"/>
      <point x="418" y="456" type="line" smooth="yes"/>
      <point x="290" y="505"/>
      <point x="196" y="555"/>
    </contour>
  </outline>
</glyph>
<glyph name="dieresis" format="1">
  <advance width="952"/>
  <unicode hex="00A8"/>
  <outline>
    <contour>
      <point x="454" y="1110" type="move" name="_top"/>
    </contour>
    <contour>
      <point x="682" y="599" type="curve" smooth="yes"/>
      <point x="738" y="599"/>
      <point x="778" y="550"/>
      <point x="778" y="493" type="curve" smooth="yes"/>
      <point x="778" y="421"/>
      <point x="716" y="343"/>
      <point x="646" y="343" type="curve" smooth="yes"/>
      <point x="587" y="343"/>
      <point x="546" y="391"/>
      <point x="546" y="451" type="curve" smooth="yes"/>
      <point x="546" y="524"/>
      <point x="609" y="599"/>
    </contour>
    <contour>
      <point x="266" y="601" type="curve" smooth="yes"/>
      <point x="322" y="601"/>
      <point x="362" y="552"/>
      <point x="362" y="495" type="curve" smooth="yes"/>
      <point x="362" y="423"/>
      <point x="300" y="345"/>
      <point x="230" y="345" type="curve" smooth="yes"/>
      <point x="171" y="345"/>
      <point x="130" y="393"/>
      <point x="130" y="453" type="curve" smooth="yes"/>
      <point x="130" y="526"/>
      <point x="193" y="601"/>
    </contour>
  </outline>
</glyph>
<glyph name="ordfeminine" format="1">
  <advance width="1022"/>
  <unicode hex="00AA"/>
  <outline>
    <contour>
      <point x="418" y="668" type="curve" smooth="yes"/>
      <point x="260" y="668"/>
      <point x="160" y="746"/>
      <point x="160" y="901" type="curve" smooth="yes"/>
      <point x="160" y="1120"/>
      <point x="317" y="1258"/>
      <point x="540" y="1258" type="curve" smooth="yes"/>
      <point x="608" y="1258"/>
      <point x="711" y="1239"/>
      <point x="757" y="1218" type="curve"/>
      <point x="762" y="1256" type="line" smooth="yes"/>
      <point x="769" y="1309"/>
      <point x="773" y="1350"/>
      <point x="773" y="1380" type="curve" smooth="yes"/>
      <point x="773" y="1488"/>
      <point x="727" y="1513"/>
      <point x="615" y="1513" type="curve" smooth="yes"/>
      <point x="524" y="1513"/>
      <point x="375" y="1466"/>
      <point x="332" y="1423" type="curve"/>
      <point x="297" y="1532" type="line"/>
      <point x="379" y="1587"/>
      <point x="491" y="1638"/>
      <point x="625" y="1638" type="curve" smooth="yes"/>
      <point x="826" y="1638"/>
      <point x="915" y="1569"/>
      <point x="915" y="1373" type="curve" smooth="yes"/>
      <point x="915" y="1336"/>
      <point x="911" y="1290"/>
      <point x="904" y="1235" type="curve" smooth="yes"/>
      <point x="827" y="686" type="line"/>
      <point x="719" y="686" type="line"/>
      <point x="719" y="828" type="line"/>
      <point x="632" y="721"/>
      <point x="532" y="668"/>
    </contour>
    <contour>
      <point x="580" y="1158" type="curve" smooth="yes"/>
      <point x="401" y="1158"/>
      <point x="312" y="1080"/>
      <point x="312" y="924" type="curve" smooth="yes"/>
      <point x="312" y="829"/>
      <point x="364" y="781"/>
      <point x="469" y="781" type="curve" smooth="yes"/>
      <point x="574" y="781"/>
      <point x="646" y="845"/>
      <point x="713" y="903" type="curve"/>
      <point x="746" y="1141" type="line"/>
      <point x="682" y="1152"/>
      <point x="627" y="1158"/>
    </contour>
    <contour>
      <point x="778" y="396" type="line"/>
      <point x="142" y="396" type="line"/>
      <point x="160" y="525" type="line"/>
      <point x="796" y="525" type="line"/>
    </contour>
  </outline>
</glyph>
<glyph name="macron" format="1">
  <advance width="924"/>
  <unicode hex="00AF"/>
  <outline>
    <contour>
      <point x="427" y="1110" type="move" name="_top"/>
    </contour>
    <contour>
      <point x="744" y="0" type="line"/>
      <point x="92" y="0" type="line"/>
      <point x="110" y="144" type="line"/>
      <point x="762" y="144" type="line"/>
    </contour>
  </outline>
</glyph>
<glyph name="plusminus" format="1">
  <advance width="1013"/>
  <unicode hex="00B1"/>
  <outline>
    <contour>
      <point x="122" y="88" type="line"/>
      <point x="774" y="88" type="line"/>
      <point x="754" y="-56" type="line"/>
      <point x="102" y="-56" type="line"/>
    </contour>
    <contour>
      <point x="592" y="652" type="line"/>
      <point x="884" y="652" type="line"/>
      <point x="864" y="518" type="line"/>
      <point x="574" y="518" type="line"/>
      <point x="526" y="174" type="line"/>
      <point x="392" y="174" type="line"/>
      <point x="442" y="518" type="line"/>
      <point x="152" y="518" type="line"/>
      <point x="170" y="652" type="line"/>
      <point x="460" y="652" type="line"/>
      <point x="510" y="996" type="line"/>
      <point x="640" y="996" type="line"/>
    </contour>
  </outline>
</glyph>
<glyph name="periodcentered" format="1">
  <advance width="467"/>
  <unicode hex="00B7"/>
  <outline>
    <contour>
      <point x="253" y="787" type="curve" smooth="yes"/>
      <point x="309" y="787"/>
      <point x="349" y="738"/>
      <point x="349" y="681" type="curve" smooth="yes"/>
      <point x="349" y="609"/>
      <point x="287" y="531"/>
      <point x="217" y="531" type="curve" smooth="yes"/>
      <point x="158" y="531"/>
      <point x="117" y="579"/>
      <point x="117" y="639" type="curve" smooth="yes"/>
      <point x="117" y="712"/>
      <point x="180" y="787"/>
    </contour>
  </outline>
</glyph>
<glyph name="cedilla" format="1">
  <advance width="535"/>
  <unicode hex="00B8"/>
  <outline>
    <contour>
      <point x="254" y="0" type="move" name="_bottom"/>
    </contour>
    <contour>
      <point x="477" y="-279" type="curve" smooth="yes"/>
      <point x="477" y="-431"/>
      <point x="359" y="-530"/>
      <point x="209" y="-530" type="curve" smooth="yes"/>
      <point x="152" y="-530"/>
      <point x="80" y="-514"/>
      <point x="50" y="-492" type="curve"/>
      <point x="31" y="-480" type="line"/>
      <point x="35" y="-368" type="line"/>
      <point x="103" y="-400"/>
      <point x="164" y="-416"/>
      <point x="219" y="-416" type="curve" smooth="yes"/>
      <point x="300" y="-416"/>
      <point x="354" y="-371"/>
      <point x="354" y="-299" type="curve" smooth="yes"/>
      <point x="354" y="-211"/>
      <point x="249" y="-203"/>
      <point x="170" y="-194" type="curve"/>
      <point x="96" y="-187" type="line" smooth="yes"/>
      <point x="91" y="-186"/>
      <point x="88" y="-186"/>
      <point x="85" y="-186" type="curve"/>
      <point x="163" y="76" type="line"/>
      <point x="277" y="76" type="line"/>
      <point x="234" y="-25"/>
      <point x="211" y="-83"/>
      <point x="207" y="-98" type="curve"/>
      <point x="344" y="-98"/>
      <point x="477" y="-141"/>
    </contour>
  </outline>
</glyph>
<glyph name="guillemotright" format="1">
  <advance width="1434"/>
  <unicode hex="00BB"/>
  <outline>
    <contour>
      <point x="700" y="306" type="line"/>
      <point x="1153" y="577" type="line"/>
      <point x="775" y="842" type="line"/>
      <point x="804" y="1049" type="line"/>
      <point x="1316" y="666" type="line"/>
      <point x="1290" y="481" type="line"/>
      <point x="671" y="99" type="line"/>
    </contour>
    <contour>
      <point x="135" y="306" type="line"/>
      <point x="588" y="577" type="line"/>
      <point x="210" y="842" type="line"/>
      <point x="239" y="1049" type="line"/>
      <point x="751" y="666" type="line"/>
      <point x="725" y="481" type="line"/>
      <point x="106" y="99" type="line"/>
    </contour>
  </outline>
</glyph>
<glyph name="multiply" format="1">
  <advance width="1095"/>
  <unicode hex="00D7"/>
  <outline>
    <contour>
      <point x="105" y="229" type="line"/>
      <point x="444" y="546" type="line"/>
      <point x="194" y="863" type="line"/>
      <point x="303" y="965" type="line"/>
      <point x="553" y="648" type="line"/>
      <point x="892" y="965" type="line"/>
      <point x="972" y="863" type="line"/>
      <point x="633" y="546" type="line"/>
      <point x="883" y="229" type="line"/>
      <point x="774" y="127" type="line"/>
      <point x="524" y="444" type="line"/>
      <point x="185" y="127" type="line"/>
    </contour>
  </outline>
</glyph>
<glyph name="Oslash" format="1">
  <advance width="1513"/>
  <unicode hex="00D8"/>
  <outline>
    <contour>
      <point x="709" y="1574" type="move" name="top"/>
    </contour>
    <contour>
      <point x="481" y="155" type="curve"/>
      <point x="1050" y="1411" type="line"/>
      <point x="999" y="1442"/>
      <point x="935" y="1458"/>
      <point x="858" y="1458" type="curve" smooth="yes"/>
      <point x="656" y="1458"/>
      <point x="541" y="1343"/>
      <point x="466" y="1212" type="curve" smooth="yes"/>
      <point x="369" y="1044"/>
      <point x="320" y="818"/>
      <point x="320" y="558" type="curve" smooth="yes"/>
      <point x="320" y="354"/>
      <point x="366" y="225"/>
    </contour>
    <contour>
      <point x="1185" y="1710" type="line"/>
      <point x="1286" y="1668" type="line"/>
      <point x="1211" y="1503" type="line"/>
      <point x="1330" y="1406"/>
      <point x="1388" y="1236"/>
      <point x="1388" y="1014" type="curve" smooth="yes"/>
      <point x="1388" y="616"/>
      <point x="1272" y="284"/>
      <point x="1053" y="99" type="curve" smooth="yes"/>
      <point x="959" y="19"/>
      <point x="816" y="-40"/>
      <point x="646" y="-40" type="curve" smooth="yes"/>
      <point x="601" y="-40"/>
      <point x="559" y="-36"/>
      <point x="520" y="-29" type="curve"/>
      <point x="461" y="-159" type="line"/>
      <point x="360" y="-113" type="line"/>
      <point x="412" y="3" type="line"/>
      <point x="221" y="85"/>
      <point x="134" y="273"/>
      <point x="134" y="552" type="curve" smooth="yes"/>
      <point x="134" y="951"/>
      <point x="252" y="1283"/>
      <point x="471" y="1470" type="curve" smooth="yes"/>
      <point x="565" y="1550"/>
      <point x="708" y="1610"/>
      <point x="878" y="1610" type="curve" smooth="yes"/>
      <point x="970" y="1610"/>
      <point x="1052" y="1593"/>
      <point x="1118" y="1562" type="curve"/>
    </contour>
    <contour>
      <point x="668" y="110" type="curve" smooth="yes"/>
      <point x="869" y="110"/>
      <point x="983" y="228"/>
      <point x="1057" y="360" type="curve" smooth="yes"/>
      <point x="1153" y="531"/>
      <point x="1202" y="757"/>
      <point x="1202" y="1018" type="curve" smooth="yes"/>
      <point x="1202" y="1155"/>
      <point x="1179" y="1259"/>
      <point x="1133" y="1329" type="curve"/>
      <point x="586" y="117" type="line"/>
      <point x="611" y="112"/>
      <point x="639" y="110"/>
    </contour>
  </outline>
</glyph>
<glyph name="germandbls" format="1">
  <advance width="1309"/>
  <unicode hex="00DF"/>
  <outline>
    <contour>
      <point x="959" y="1248" type="curve" smooth="yes"/>
      <point x="959" y="1396"/>
      <point x="868" y="1436"/>
      <point x="712" y="1436" type="curve" smooth="yes"/>
      <point x="473" y="1436"/>
      <point x="447" y="1230"/>
      <point x="418" y="1018" type="curve" smooth="yes"/>
      <point x="276" y="0" type="line"/>
      <point x="104" y="0" type="line"/>
      <point x="242" y="992" type="line" smooth="yes"/>
      <point x="290" y="1337"/>
      <point x="382" y="1580"/>
      <point x="732" y="1580" type="curve" smooth="yes"/>
      <point x="983" y="1580"/>
      <point x="1109" y="1475"/>
      <point x="1109" y="1265" type="curve" smooth="yes"/>
      <point x="1109" y="1061"/>
      <point x="1022" y="868"/>
      <point x="840" y="844" type="curve"/>
      <point x="1041" y="826"/>
      <point x="1162" y="699"/>
      <point x="1162" y="487" type="curve" smooth="yes"/>
      <point x="1162" y="42"/>
      <point x="826" y="-100"/>
      <point x="408" y="-130" type="curve"/>
      <point x="430" y="26" type="line"/>
      <point x="763" y="54"/>
      <point x="1004" y="136"/>
      <point x="1004" y="490" type="curve" smooth="yes"/>
      <point x="1004" y="716"/>
      <point x="803" y="774"/>
      <point x="552" y="774" type="curve" smooth="yes"/>
      <point x="506" y="774" type="line"/>
      <point x="526" y="906" type="line"/>
      <point x="546" y="906" type="line" smooth="yes"/>
      <point x="824" y="906"/>
      <point x="959" y="978"/>
    </contour>
  </outline>
</glyph>
<glyph name="ae" format="1">
  <advance width="1777"/>
  <unicode hex="00E6"/>
  <outline>
    <contour>
      <point x="835" y="1110" type="move" name="top"/>
    </contour>
    <contour>
      <point x="1499" y="773" type="curve" smooth="yes"/>
      <point x="1499" y="916"/>
      <point x="1438" y="1002"/>
      <point x="1302" y="1002" type="curve" smooth="yes"/>
      <point x="1093" y="1002"/>
      <point x="1001" y="839"/>
      <point x="974" y="650" type="curve"/>
      <point x="1488" y="650" type="line"/>
      <point x="1492" y="683" type="line" smooth="yes"/>
      <point x="1497" y="714"/>
      <point x="1499" y="744"/>
    </contour>
    <contour>
      <point x="280" y="278" type="curve" smooth="yes"/>
      <point x="280" y="159"/>
      <point x="344" y="119"/>
      <point x="466" y="119" type="curve" smooth="yes"/>
      <point x="551" y="119"/>
      <point x="645" y="166"/>
      <point x="750" y="260" type="curve"/>
      <point x="789" y="537" type="line"/>
      <point x="718" y="551"/>
      <point x="653" y="558"/>
      <point x="595" y="558" type="curve" smooth="yes"/>
      <point x="392" y="558"/>
      <point x="280" y="484"/>
    </contour>
    <contour>
      <point x="1322" y="1134" type="curve" smooth="yes"/>
      <point x="1540" y="1134"/>
      <point x="1644" y="982"/>
      <point x="1644" y="760" type="curve" smooth="yes"/>
      <point x="1644" y="694"/>
      <point x="1634" y="619"/>
      <point x="1614" y="535" type="curve"/>
      <point x="958" y="535" type="line"/>
      <point x="951" y="485"/>
      <point x="947" y="440"/>
      <point x="947" y="401" type="curve" smooth="yes"/>
      <point x="947" y="224"/>
      <point x="1019" y="126"/>
      <point x="1198" y="126" type="curve" smooth="yes"/>
      <point x="1295" y="126"/>
      <point x="1387" y="162"/>
      <point x="1476" y="235" type="curve"/>
      <point x="1512" y="99" type="line"/>
      <point x="1437" y="42"/>
      <point x="1284" y="-23"/>
      <point x="1166" y="-23" type="curve" smooth="yes"/>
      <point x="993" y="-23"/>
      <point x="879" y="52"/>
      <point x="823" y="201" type="curve"/>
      <point x="738" y="94"/>
      <point x="586" y="-23"/>
      <point x="406" y="-23" type="curve" smooth="yes"/>
      <point x="220" y="-23"/>
      <point x="108" y="67"/>
      <point x="108" y="250" type="curve" smooth="yes"/>
      <point x="108" y="277"/>
      <point x="110" y="301"/>
      <point x="113" y="323" type="curve"/>
      <point x="113" y="327" type="line"/>
      <point x="144" y="545"/>
      <point x="307" y="683"/>
      <point x="550" y="683" type="curve" smooth="yes"/>
      <point x="629" y="683"/>
      <point x="751" y="659"/>
      <point x="803" y="633" type="curve"/>
      <point x="809" y="678" type="line" smooth="yes"/>
      <point x="818" y="741"/>
      <point x="822" y="789"/>
      <point x="822" y="824" type="curve" smooth="yes"/>
      <point x="822" y="954"/>
      <point x="771" y="992"/>
      <point x="637" y="992" type="curve" smooth="yes"/>
      <point x="570" y="992"/>
      <point x="506" y="980"/>
      <point x="444" y="955" type="curve" smooth="yes"/>
      <point x="382" y="930"/>
      <point x="338" y="908"/>
      <point x="310" y="887" type="curve"/>
      <point x="267" y="1002" type="line"/>
      <point x="340" y="1063"/>
      <point x="520" y="1134"/>
      <point x="649" y="1134" type="curve" smooth="yes"/>
      <point x="831" y="1134"/>
      <point x="929" y="1079"/>
      <point x="950" y="920" type="curve"/>
      <point x="1018" y="1041"/>
      <point x="1149" y="1134"/>
    </contour>
  </outline>
</glyph>
<glyph name="oslash" format="1">
  <advance width="1181"/>
  <unicode hex="00F8"/>
  <outline>
    <contour>
      <point x="563" y="1110" type="move" name="top"/>
    </contour>
    <contour>
      <point x="817" y="931" type="curve"/>
      <point x="451" y="118" type="line"/>
      <point x="472" y="113"/>
      <point x="495" y="110"/>
      <point x="520" y="110" type="curve" smooth="yes"/>
      <point x="679" y="110"/>
      <point x="759" y="213"/>
      <point x="812" y="322" type="curve" smooth="yes"/>
      <point x="858" y="418"/>
      <point x="884" y="549"/>
      <point x="884" y="682" type="curve" smooth="yes"/>
      <point x="884" y="795"/>
      <point x="862" y="878"/>
    </contour>
    <contour>
      <point x="653" y="998" type="curve" smooth="yes"/>
      <point x="492" y="998"/>
      <point x="410" y="894"/>
      <point x="355" y="785" type="curve" smooth="yes"/>
      <point x="307" y="689"/>
      <point x="278" y="561"/>
      <point x="278" y="426" type="curve" smooth="yes"/>
      <point x="278" y="299"/>
      <point x="310" y="205"/>
      <point x="379" y="151" type="curve"/>
      <point x="754" y="978" type="line"/>
      <point x="725" y="991"/>
      <point x="692" y="998"/>
    </contour>
    <contour>
      <point x="317" y="-181" type="line"/>
      <point x="245" y="-145" type="line"/>
      <point x="318" y="16" type="line"/>
      <point x="183" y="82"/>
      <point x="116" y="229"/>
      <point x="116" y="426" type="curve" smooth="yes"/>
      <point x="116" y="536"/>
      <point x="137" y="630"/>
      <point x="165" y="724" type="curve" smooth="yes"/>
      <point x="199" y="836"/>
      <point x="260" y="931"/>
      <point x="334" y="1005" type="curve" smooth="yes"/>
      <point x="406" y="1077"/>
      <point x="522" y="1130"/>
      <point x="662" y="1130" type="curve" smooth="yes"/>
      <point x="718" y="1130"/>
      <point x="768" y="1122"/>
      <point x="812" y="1106" type="curve"/>
      <point x="882" y="1260" type="line"/>
      <point x="950" y="1226" type="line"/>
      <point x="881" y="1072" type="line"/>
      <point x="991" y="999"/>
      <point x="1046" y="859"/>
      <point x="1046" y="680" type="curve" smooth="yes"/>
      <point x="1046" y="444"/>
      <point x="967" y="254"/>
      <point x="851" y="128" type="curve" smooth="yes"/>
      <point x="774" y="45"/>
      <point x="654" y="-21"/>
      <point x="500" y="-21" type="curve" smooth="yes"/>
      <point x="462" y="-21"/>
      <point x="427" y="-17"/>
      <point x="394" y="-10" type="curve"/>
    </contour>
  </outline>
</glyph>
<glyph name="thorn" format="1">
  <advance width="1244"/>
  <unicode hex="00FE"/>
  <outline>
    <contour>
      <point x="429" y="826" type="curve"/>
      <point x="347" y="250" type="line"/>
      <point x="401" y="183"/>
      <point x="511" y="122"/>
      <point x="631" y="122" type="curve" smooth="yes"/>
      <point x="823" y="122"/>
      <point x="948" y="380"/>
      <point x="948" y="705" type="curve" smooth="yes"/>
      <point x="948" y="894"/>
      <point x="882" y="988"/>
      <point x="751" y="988" type="curve" smooth="yes"/>
      <point x="607" y="988"/>
      <point x="500" y="897"/>
    </contour>
    <contour>
      <point x="361" y="1564" type="line"/>
      <point x="525" y="1564" type="line"/>
      <point x="439" y="948" type="line"/>
      <point x="514" y="1037"/>
      <point x="631" y="1130"/>
      <point x="777" y="1130" type="curve" smooth="yes"/>
      <point x="1020" y="1130"/>
      <point x="1109" y="939"/>
      <point x="1109" y="697" type="curve" smooth="yes"/>
      <point x="1109" y="350"/>
      <point x="959" y="-20"/>
      <point x="613" y="-20" type="curve" smooth="yes"/>
      <point x="470" y="-20"/>
      <point x="374" y="25"/>
      <point x="323" y="116" type="curve"/>
      <point x="241" y="-464" type="line"/>
      <point x="73" y="-488" type="line"/>
    </contour>
  </outline>
</glyph>
<glyph name="uni2010" format="1">
  <advance width="803"/>
  <unicode hex="2010"/>
  <outline>
    <contour>
      <point x="133" y="638" type="line"/>
      <point x="679" y="638" type="line"/>
      <point x="661" y="508" type="line"/>
      <point x="115" y="508" type="line"/>
    </contour>
  </outline>
</glyph>
<glyph name="quotedblbase" format="1">
  <advance width="902"/>
  <unicode hex="201E"/>
  <outline>
    <contour>
      <point x="232" y="1" type="curve"/>
      <point x="111" y="1" type="line"/>
      <point x="152" y="294" type="line"/>
      <point x="397" y="294" type="line"/>
      <point x="377" y="3" type="line" smooth="yes"/>
      <point x="366" y="-157"/>
      <point x="258" y="-213"/>
      <point x="124" y="-252" type="curve"/>
      <point x="89" y="-158" type="line"/>
      <point x="177" y="-127"/>
      <point x="218" y="-95"/>
    </contour>
    <contour>
      <point x="586" y="1" type="curve"/>
      <point x="465" y="1" type="line"/>
      <point x="506" y="294" type="line"/>
      <point x="751" y="294" type="line"/>
      <point x="731" y="3" type="line" smooth="yes"/>
      <point x="720" y="-157"/>
      <point x="612" y="-213"/>
      <point x="478" y="-252" type="curve"/>
      <point x="443" y="-158" type="line"/>
      <point x="531" y="-127"/>
      <point x="572" y="-95"/>
    </contour>
  </outline>
</glyph>
<glyph name="bullet" format="1">
  <advance width="898"/>
  <unicode hex="2022"/>
  <outline>
    <contour>
      <point x="402" y="358" type="curve" smooth="yes"/>
      <point x="240" y="358"/>
      <point x="121" y="481"/>
      <point x="121" y="643" type="curve" smooth="yes"/>
      <point x="121" y="794"/>
      <point x="212" y="913"/>
      <point x="312" y="974" type="curve" smooth="yes"/>
      <point x="370" y="1010"/>
      <point x="431" y="1028"/>
      <point x="496" y="1028" type="curve" smooth="yes"/>
      <point x="658" y="1028"/>
      <point x="777" y="903"/>
      <point x="777" y="741" type="curve" smooth="yes"/>
      <point x="777" y="640"/>
      <point x="739" y="551"/>
      <point x="664" y="474" type="curve" smooth="yes"/>
      <point x="589" y="397"/>
      <point x="502" y="358"/>
    </contour>
  </outline>
</glyph>
<glyph name="Euro" format="1">
  <advance width="1246"/>
  <unicode hex="20AC"/>
  <outline>
    <contour>
      <point x="907" y="159" type="curve" smooth="yes"/>
      <point x="943" y="178" type="line"/>
      <point x="974" y="55" type="line"/>
      <point x="888" y="12"/>
      <point x="772" y="-38"/>
      <point x="632" y="-38" type="curve" smooth="yes"/>
      <point x="587" y="-38"/>
      <point x="543" y="-32"/>
      <point x="504" y="-15" type="curve" smooth="yes"/>
      <point x="348" y="52"/>
      <point x="274" y="230"/>
      <point x="274" y="455" type="curve" smooth="yes"/>
      <point x="274" y="493"/>
      <point x="276" y="533"/>
      <point x="280" y="574" type="curve"/>
      <point x="127" y="574" type="line"/>
      <point x="145" y="696" type="line"/>
      <point x="293" y="696" type="line"/>
      <point x="295" y="708"/>
      <point x="311" y="798"/>
      <point x="313" y="809" type="curve"/>
      <point x="145" y="809" type="line"/>
      <point x="163" y="931" type="line"/>
      <point x="352" y="931" type="line"/>
      <point x="408" y="1214"/>
      <point x="570" y="1438"/>
      <point x="890" y="1439" type="curve" smooth="yes"/>
      <point x="974" y="1439"/>
      <point x="1083" y="1418"/>
      <point x="1134" y="1392" type="curve" smooth="yes"/>
      <point x="1164" y="1376" type="line"/>
      <point x="1107" y="1254" type="line"/>
      <point x="1059" y="1278"/>
      <point x="951" y="1308"/>
      <point x="868" y="1308" type="curve" smooth="yes"/>
      <point x="641" y="1308"/>
      <point x="532" y="1145"/>
      <point x="503" y="931" type="curve"/>
      <point x="870" y="931" type="line"/>
      <point x="852" y="809" type="line"/>
      <point x="476" y="809" type="line"/>
      <point x="473" y="800"/>
      <point x="466" y="762"/>
      <point x="455" y="696" type="curve"/>
      <point x="783" y="696" type="line"/>
      <point x="765" y="574" type="line"/>
      <point x="436" y="574" type="line"/>
      <point x="428" y="525"/>
      <point x="424" y="478"/>
      <point x="424" y="433" type="curve" smooth="yes"/>
      <point x="424" y="259"/>
      <point x="489" y="102"/>
      <point x="667" y="102" type="curve" smooth="yes"/>
      <point x="747" y="102"/>
      <point x="857" y="133"/>
    </contour>
  </outline>
</glyph>
